<svg xmlns="http://www.w3.org/2000/svg" viewBox="0 0 1024 1024">
  <defs>
    <linearGradient id="tile" x1="100" y1="70" x2="930" y2="970" gradientUnits="userSpaceOnUse">
      <stop stop-color="#587083"/>
      <stop offset=".52" stop-color="#445c6e"/>
      <stop offset="1" stop-color="#344b5b"/>
    </linearGradient>
    <linearGradient id="paper" x1="300" y1="190" x2="720" y2="850" gradientUnits="userSpaceOnUse">
      <stop stop-color="#91a495"/>
      <stop offset="1" stop-color="#748b7d"/>
    </linearGradient>
    <linearGradient id="ivory" x1="280" y1="170" x2="760" y2="860" gradientUnits="userSpaceOnUse">
      <stop stop-color="#faf5eb"/>
      <stop offset="1" stop-color="#ded4c4"/>
    </linearGradient>
  </defs>
  <path fill="url(#tile)" d="M0 0h1024v1024H0z"/>
  <path fill="#ffffff" opacity=".07" d="M0 0h1024v54H0z"/>
  <path fill="#1f3442" opacity=".18" d="M0 970h1024v54H0z"/>
  <rect x="218" y="140" width="588" height="744" rx="92" fill="url(#paper)" stroke="url(#ivory)" stroke-width="54"/>
  <path d="M354 340h316M354 446h316" fill="none" stroke="#f5eee2" stroke-width="43" stroke-linecap="round"/>
  <path d="M634 556c18 63 51 96 114 114-63 18-96 51-114 114-18-63-51-96-114-114 63-18 96-51 114-114Z" fill="url(#ivory)"/>
</svg>
